<mxfile host="app.diagrams.net" agent="Mozilla/5.0 (Windows NT 10.0; Win64; x64) AppleWebKit/537.36 (KHTML, like Gecko) Chrome/139.0.0.0 Safari/537.36" version="28.1.1">
  <diagram name="Page-1" id="Lhnf05dxkRo2Ae3N7aeL">
    <mxGraphModel dx="1163" dy="620" grid="1" gridSize="10" guides="1" tooltips="1" connect="1" arrows="1" fold="1" page="1" pageScale="1" pageWidth="850" pageHeight="1100" math="0" shadow="0">
      <root>
        <mxCell id="0" />
        <mxCell id="1" parent="0" />
        <mxCell id="9GM76gsJbeFUxiA91XMj-10" value="" style="endArrow=classic;startArrow=classic;html=1;rounded=0;" edge="1" parent="1">
          <mxGeometry width="50" height="50" relative="1" as="geometry">
            <mxPoint x="1190" y="730" as="sourcePoint" />
            <mxPoint x="1240" y="680" as="targetPoint" />
          </mxGeometry>
        </mxCell>
        <mxCell id="9GM76gsJbeFUxiA91XMj-14" value="" style="edgeStyle=orthogonalEdgeStyle;rounded=0;orthogonalLoop=1;jettySize=auto;html=1;" edge="1" parent="1" source="9GM76gsJbeFUxiA91XMj-12">
          <mxGeometry relative="1" as="geometry">
            <mxPoint x="550" y="140" as="targetPoint" />
          </mxGeometry>
        </mxCell>
        <mxCell id="9GM76gsJbeFUxiA91XMj-12" value="plan" style="ellipse;whiteSpace=wrap;html=1;" vertex="1" parent="1">
          <mxGeometry x="490" y="10" width="120" height="60" as="geometry" />
        </mxCell>
        <mxCell id="9GM76gsJbeFUxiA91XMj-17" value="" style="edgeStyle=orthogonalEdgeStyle;rounded=0;orthogonalLoop=1;jettySize=auto;html=1;" edge="1" parent="1" source="9GM76gsJbeFUxiA91XMj-15" target="9GM76gsJbeFUxiA91XMj-16">
          <mxGeometry relative="1" as="geometry" />
        </mxCell>
        <mxCell id="9GM76gsJbeFUxiA91XMj-15" value="Develop" style="ellipse;whiteSpace=wrap;html=1;" vertex="1" parent="1">
          <mxGeometry x="490" y="150" width="120" height="80" as="geometry" />
        </mxCell>
        <mxCell id="9GM76gsJbeFUxiA91XMj-19" value="" style="edgeStyle=orthogonalEdgeStyle;rounded=0;orthogonalLoop=1;jettySize=auto;html=1;" edge="1" parent="1" source="9GM76gsJbeFUxiA91XMj-16">
          <mxGeometry relative="1" as="geometry">
            <mxPoint x="550" y="470" as="targetPoint" />
          </mxGeometry>
        </mxCell>
        <mxCell id="9GM76gsJbeFUxiA91XMj-16" value="Build" style="ellipse;whiteSpace=wrap;html=1;" vertex="1" parent="1">
          <mxGeometry x="490" y="310" width="120" height="80" as="geometry" />
        </mxCell>
        <mxCell id="9GM76gsJbeFUxiA91XMj-21" value="" style="edgeStyle=orthogonalEdgeStyle;rounded=0;orthogonalLoop=1;jettySize=auto;html=1;" edge="1" parent="1" target="9GM76gsJbeFUxiA91XMj-20">
          <mxGeometry relative="1" as="geometry">
            <mxPoint x="550" y="550" as="sourcePoint" />
          </mxGeometry>
        </mxCell>
        <mxCell id="9GM76gsJbeFUxiA91XMj-23" value="" style="edgeStyle=orthogonalEdgeStyle;rounded=0;orthogonalLoop=1;jettySize=auto;html=1;" edge="1" parent="1" source="9GM76gsJbeFUxiA91XMj-20" target="9GM76gsJbeFUxiA91XMj-22">
          <mxGeometry relative="1" as="geometry" />
        </mxCell>
        <mxCell id="9GM76gsJbeFUxiA91XMj-35" value="" style="edgeStyle=orthogonalEdgeStyle;rounded=0;orthogonalLoop=1;jettySize=auto;html=1;" edge="1" parent="1" source="9GM76gsJbeFUxiA91XMj-20" target="9GM76gsJbeFUxiA91XMj-34">
          <mxGeometry relative="1" as="geometry" />
        </mxCell>
        <mxCell id="9GM76gsJbeFUxiA91XMj-20" value="release" style="ellipse;whiteSpace=wrap;html=1;" vertex="1" parent="1">
          <mxGeometry x="490" y="590" width="120" height="80" as="geometry" />
        </mxCell>
        <mxCell id="9GM76gsJbeFUxiA91XMj-25" value="" style="edgeStyle=orthogonalEdgeStyle;rounded=0;orthogonalLoop=1;jettySize=auto;html=1;" edge="1" parent="1" source="9GM76gsJbeFUxiA91XMj-22">
          <mxGeometry relative="1" as="geometry">
            <mxPoint x="550" y="800" as="targetPoint" />
          </mxGeometry>
        </mxCell>
        <mxCell id="9GM76gsJbeFUxiA91XMj-36" value="" style="edgeStyle=orthogonalEdgeStyle;rounded=0;orthogonalLoop=1;jettySize=auto;html=1;" edge="1" parent="1" source="9GM76gsJbeFUxiA91XMj-22" target="9GM76gsJbeFUxiA91XMj-32">
          <mxGeometry relative="1" as="geometry" />
        </mxCell>
        <mxCell id="9GM76gsJbeFUxiA91XMj-22" value="deploy" style="ellipse;whiteSpace=wrap;html=1;" vertex="1" parent="1">
          <mxGeometry x="490" y="770" width="120" height="80" as="geometry" />
        </mxCell>
        <mxCell id="9GM76gsJbeFUxiA91XMj-27" value="" style="edgeStyle=orthogonalEdgeStyle;rounded=0;orthogonalLoop=1;jettySize=auto;html=1;" edge="1" parent="1" target="9GM76gsJbeFUxiA91XMj-26">
          <mxGeometry relative="1" as="geometry">
            <mxPoint x="550" y="1030" as="sourcePoint" />
          </mxGeometry>
        </mxCell>
        <mxCell id="9GM76gsJbeFUxiA91XMj-26" value="monitor" style="ellipse;whiteSpace=wrap;html=1;" vertex="1" parent="1">
          <mxGeometry x="490" y="1120" width="120" height="80" as="geometry" />
        </mxCell>
        <mxCell id="9GM76gsJbeFUxiA91XMj-33" value="" style="edgeStyle=orthogonalEdgeStyle;rounded=0;orthogonalLoop=1;jettySize=auto;html=1;" edge="1" parent="1" source="9GM76gsJbeFUxiA91XMj-32" target="9GM76gsJbeFUxiA91XMj-26">
          <mxGeometry relative="1" as="geometry" />
        </mxCell>
        <mxCell id="9GM76gsJbeFUxiA91XMj-32" value="operator" style="ellipse;whiteSpace=wrap;html=1;" vertex="1" parent="1">
          <mxGeometry x="490" y="940" width="120" height="80" as="geometry" />
        </mxCell>
        <mxCell id="9GM76gsJbeFUxiA91XMj-34" value="text" style="ellipse;whiteSpace=wrap;html=1;" vertex="1" parent="1">
          <mxGeometry x="490" y="440" width="120" height="80" as="geometry" />
        </mxCell>
      </root>
    </mxGraphModel>
  </diagram>
</mxfile>
